<?xml version="1.0" encoding="utf-8"?>
<!-- Generator: Adobe Illustrator 24.0.3, SVG Export Plug-In . SVG Version: 6.00 Build 0)  -->
<svg version="1.1" id="Layer_1" xmlns="http://www.w3.org/2000/svg" xmlns:xlink="http://www.w3.org/1999/xlink" x="0px" y="0px"
	 viewBox="0 0 263 293.6" style="enable-background:new 0 0 263 293.6;" xml:space="preserve">
<style type="text/css">
	.st0{fill:#FFFFFF;stroke:#231F20;stroke-width:4;stroke-miterlimit:10;}
</style>
<title>Asset 1</title>
<g id="Layer_2_1_">
	<g id="Layer_2-2">
		<path class="st0" d="M0.5,229.1h64V49c-6-23.9-15.8-41.6-32-48.5c-15,5.9-24.9,23-32,46.2V229.1z"/>
		<path class="st0" d="M98.5,230.1h64V50c-6-23.9-15.8-41.6-32-48.5c-15,5.9-24.9,23-32,46.2V230.1z"/>
		<path class="st0" d="M198.5,230.1h64V50c-6-23.9-15.8-41.6-32-48.5c-15,5.9-24.9,23-32,46.2V230.1z"/>
		<rect x="0.5" y="252.1" class="st0" width="64" height="41"/>
		<rect x="98.5" y="252.1" class="st0" width="64" height="41"/>
		<rect x="197.5" y="252.1" class="st0" width="64" height="41"/>
	</g>
</g>
</svg>
