<?xml version="1.0" encoding="utf-8"?>
<!-- Generator: Adobe Illustrator 24.0.3, SVG Export Plug-In . SVG Version: 6.00 Build 0)  -->
<svg version="1.1" id="Layer_1" xmlns="http://www.w3.org/2000/svg" xmlns:xlink="http://www.w3.org/1999/xlink" x="0px" y="0px"
	 viewBox="0 0 274.1 273.5" style="enable-background:new 0 0 274.1 273.5;" xml:space="preserve">
<style type="text/css">
	.st0{fill:#FFFFFF;stroke:#231F20;stroke-width:2;stroke-miterlimit:10;}
</style>
<title>Asset 3</title>
<g id="Layer_2_1_">
	<g id="Layer_4">
		<path class="st0" d="M17.1,86.3L86.3,87V14.5c3.3-6.7,7.8-11.6,14-14h70.6c8.5,1.7,13.6,6.5,15.9,14v73.8l72.3-0.2
			c6.8,2.7,12.1,8.3,14.5,15.2v69.5c-2.6,5.6-6.9,10.1-12.4,13h-73.8l-1.6,70.9c-1.6,7.2-5.5,13.1-12.6,15.5l-70.3,0.8
			c-6.4-1.9-11.2-6.5-14.6-13.7v-72.8l-75.1-0.6C7,183.3,2.3,178,0.5,171.5v-69.9C3.3,94.2,9.5,88.5,17.1,86.3z"/>
	</g>
</g>
</svg>
